<?xml version="1.0" standalone="no"?>
<!DOCTYPE svg PUBLIC "-//W3C//DTD SVG 20010904//EN"
 "http://www.w3.org/TR/2001/REC-SVG-20010904/DTD/svg10.dtd">
<svg version="1.0" xmlns="http://www.w3.org/2000/svg"
 width="640.000000pt" height="561.000000pt" viewBox="0 0 640.000000 561.000000"
 preserveAspectRatio="xMidYMid meet">

<g transform="translate(0.000000,561.000000) scale(0.100000,-0.100000)"
fill="#000000" stroke="none">
<path d="M3124 5425 c-27 -14 -56 -36 -65 -48 -9 -13 -652 -1127 -1429 -2477
-777 -1350 -1418 -2463 -1425 -2474 -7 -12 -18 -38 -25 -58 -10 -32 -8 -44 8
-80 20 -45 78 -103 119 -119 36 -13 5727 -12 5776 2 21 6 55 25 75 44 43 38
79 122 64 152 -5 10 -15 32 -24 48 -8 17 -650 1135 -1427 2485 -922 1603
-1423 2465 -1444 2483 -41 37 -100 67 -130 67 -13 0 -45 -11 -73 -25z m229
-906 c76 -130 137 -243 137 -251 0 -17 -111 -276 -205 -478 -37 -80 -121 -269
-187 -420 -66 -151 -173 -390 -238 -530 -65 -140 -137 -300 -160 -354 -23 -55
-80 -183 -127 -285 -112 -243 -233 -522 -233 -535 0 -6 7 -3 14 6 7 10 17 18
22 18 5 0 21 14 36 30 26 30 48 39 48 20 0 -5 15 -10 34 -10 19 0 38 -4 41
-10 3 -5 21 -10 39 -10 27 0 36 7 60 45 16 25 34 45 41 45 13 0 60 48 67 70 8
22 -17 52 -39 48 -10 -2 -25 -18 -34 -35 -23 -47 -39 -63 -60 -63 -15 0 -19 7
-19 36 0 27 -7 41 -25 56 -14 11 -25 25 -25 32 0 26 70 145 603 1023 301 497
550 910 553 918 4 8 9 15 13 15 3 -1 42 -65 86 -143 44 -77 95 -167 113 -198
l32 -57 -490 -611 c-269 -337 -490 -614 -490 -616 0 -2 51 49 113 114 61 65
299 314 527 554 l414 435 68 -117 68 -116 -426 -420 c-233 -231 -615 -607
-848 -835 -232 -228 -421 -416 -420 -418 6 -9 108 66 943 692 493 370 901 675
907 679 14 8 169 -252 157 -263 -4 -4 -325 -192 -713 -417 -796 -462 -821
-477 -800 -470 8 3 373 163 812 356 438 193 801 351 806 351 18 0 252 -414
239 -421 -7 -4 -468 -112 -1024 -240 -708 -164 -1007 -237 -994 -242 12 -6
404 42 1087 132 587 77 1068 140 1069 138 39 -60 165 -290 161 -294 -3 -3
-378 -23 -833 -44 -856 -39 -943 -45 -808 -48 44 -1 422 -12 840 -26 418 -14
790 -25 827 -25 l66 0 41 -71 c23 -40 39 -74 37 -77 -3 -2 -584 24 -1291 58
-708 34 -1289 59 -1293 56 -3 -3 5 -6 18 -6 25 0 2723 -369 2726 -373 1 -1 45
-76 97 -167 l96 -165 -301 -3 -302 -2 -1253 250 c-690 138 -1262 250 -1271
248 -9 -2 -16 -11 -16 -21 1 -9 -4 -17 -11 -17 -7 0 -19 -10 -27 -22 -12 -18
-23 -22 -54 -20 -33 2 20 -31 326 -205 l365 -208 -577 -3 c-317 -1 -837 -1
-1156 0 l-580 3 446 776 447 776 41 -71 41 -71 -39 -37 c-21 -21 -38 -40 -38
-44 0 -3 16 -33 36 -65 42 -67 66 -75 104 -34 l23 24 38 -58 c21 -32 45 -61
54 -65 20 -7 65 -8 65 -1 0 3 -57 127 -127 276 -123 263 -126 271 -111 297 80
139 102 175 104 167 2 -6 39 -172 84 -370 44 -198 84 -367 89 -375 8 -15 139
-45 149 -35 6 6 462 2122 462 2143 0 7 124 229 276 493 241 419 278 478 289
462 6 -10 73 -124 148 -254z m237 -417 c0 -11 -254 -470 -289 -522 -6 -8 22
55 62 140 41 85 102 217 138 293 55 120 65 135 76 120 7 -9 13 -23 13 -31z
m-1230 -772 c-6 -11 -13 -20 -16 -20 -2 0 0 9 6 20 6 11 13 20 16 20 2 0 0 -9
-6 -20z m-39 -190 c-12 -78 -21 -162 -21 -186 0 -38 -18 -178 -35 -282 -3 -18
-10 -30 -16 -27 -5 4 -39 3 -74 0 l-65 -7 0 -72 c0 -67 -2 -73 -30 -98 -26
-23 -30 -33 -30 -76 0 -61 14 -102 34 -102 8 0 19 -7 24 -16 6 -11 27 -18 61
-22 45 -4 50 -7 47 -26 -3 -11 -10 -75 -17 -142 l-12 -120 -61 8 c-34 5 -69 7
-78 4 -10 -2 -18 -3 -18 -3 0 17 -31 169 -38 187 -5 14 -22 109 -38 213 -20
135 -32 186 -40 183 -7 -3 -4 9 7 28 18 31 22 33 63 29 38 -5 45 -3 50 15 4
12 0 35 -10 53 l-16 32 -20 -31 c-33 -53 -32 -36 1 21 17 28 53 89 79 135 l47
82 41 -6 c36 -5 44 -3 58 17 9 13 16 31 16 40 0 9 9 27 19 41 13 16 20 44 23
91 1 37 2 67 1 67 -1 0 -28 -43 -59 -95 -31 -52 -59 -95 -61 -95 -3 0 5 16 16
36 12 20 54 92 94 160 39 68 73 120 75 115 2 -6 -6 -74 -17 -151z m-181 -190
c-6 -11 -13 -20 -16 -20 -2 0 0 9 6 20 6 11 13 20 16 20 2 0 0 -9 -6 -20z
m2400 -480 c0 -3 -12 -11 -27 -17 -16 -7 -35 -16 -43 -21 -59 -37 -105 -39
-98 -5 3 16 20 29 98 72 l35 20 17 -22 c10 -12 18 -24 18 -27z m580 -1385
c213 -14 226 -16 242 -37 16 -22 16 -23 -5 -25 -12 -2 -132 15 -267 36 -135
22 -234 40 -220 40 14 1 126 -6 250 -14z m-1560 -291 c465 -113 847 -208 849
-210 2 -2 -69 -4 -158 -4 l-162 0 -177 60 c-97 33 -186 64 -197 69 -11 5 -46
12 -78 15 -32 4 -66 11 -76 18 -16 9 -24 7 -47 -13 -48 -41 -43 -54 43 -101
l78 -43 -58 -3 c-53 -3 -78 5 -280 84 -122 48 -226 91 -231 95 -5 5 0 16 12
26 29 24 16 43 -35 50 -34 4 -43 2 -56 -17 l-16 -23 -152 58 c-142 55 -150 60
-121 67 39 10 40 23 5 61 -24 25 -25 28 -8 24 11 -4 400 -99 865 -213z"/>
<path d="M2854 3522 c-12 -15 -29 -43 -38 -63 -9 -19 -35 -55 -57 -80 -38 -41
-40 -47 -36 -93 4 -40 11 -55 36 -78 41 -36 66 -35 101 5 15 17 54 61 85 97
31 36 64 81 72 100 27 61 36 85 39 98 4 21 -35 34 -81 27 -26 -3 -46 -2 -50 5
-12 19 -50 9 -71 -18z"/>
<path d="M3620 3412 c-14 -2 -37 -15 -53 -30 -23 -22 -39 -27 -95 -30 -43 -3
-74 -10 -86 -21 -21 -18 -50 -71 -39 -71 4 0 2 -5 -5 -12 -16 -16 -15 -77 1
-106 33 -58 120 -69 174 -22 18 17 39 30 46 30 18 0 58 46 91 103 23 40 26 55
21 92 -9 55 -23 72 -55 67z"/>
<path d="M2516 2537 c-51 -60 -53 -68 -27 -112 19 -32 39 -40 77 -31 21 6 24
12 24 48 0 23 5 57 12 75 9 25 9 39 2 51 -20 31 -41 24 -88 -31z"/>
<path d="M2961 2526 c-27 -28 -32 -40 -29 -72 5 -60 34 -57 85 6 37 46 41 54
31 76 -16 34 -48 30 -87 -10z"/>
<path d="M2439 2258 c-22 -30 -22 -31 -4 -44 25 -19 39 -18 59 5 22 25 17 51
-11 62 -18 7 -26 2 -44 -23z"/>
<path d="M3856 2005 c-11 -8 -29 -15 -40 -15 -23 -1 -123 -66 -138 -90 -6 -9
-5 -26 1 -44 11 -28 13 -28 69 -23 31 2 76 0 100 -6 l42 -11 48 47 c40 41 45
49 34 65 -6 9 -16 26 -21 38 -9 20 -52 54 -68 54 -4 0 -17 -7 -27 -15z"/>
<path d="M1790 1702 c0 -23 19 -42 41 -42 25 0 32 16 19 40 -14 26 -60 28 -60
2z"/>
<path d="M2463 1694 c-18 -8 -16 -43 2 -50 8 -4 27 -3 41 0 19 5 25 12 22 29
-3 22 -37 33 -65 21z"/>
<path d="M1692 1667 c-27 -29 -27 -39 -2 -62 18 -17 21 -17 45 -1 31 20 30 52
-1 72 -18 13 -23 11 -42 -9z"/>
<path d="M2795 1624 c-25 -25 -13 -38 53 -56 49 -13 64 -14 78 -3 27 19 11 41
-45 59 -62 20 -66 20 -86 0z"/>
<path d="M1804 1592 c-137 -100 -187 -166 -210 -275 -18 -85 -13 -141 22 -249
23 -69 32 -83 94 -141 70 -66 134 -99 227 -116 94 -18 271 39 361 116 31 26
33 30 22 58 -20 53 -49 75 -97 75 -31 0 -43 4 -43 14 0 8 -12 24 -27 36 l-28
22 58 53 c31 28 57 57 57 63 0 17 -34 32 -72 32 -38 0 -52 8 -61 33 -3 9 -15
17 -26 17 -11 0 -27 7 -36 16 -13 13 -28 15 -72 10 -36 -4 -60 -2 -69 5 -20
17 -17 57 5 64 36 11 50 37 44 83 -3 24 -11 42 -18 42 -7 0 -15 13 -18 28 -4
17 -16 33 -32 40 -14 7 -27 12 -28 12 -1 0 -25 -17 -53 -38z"/>
<path d="M2106 1543 c-36 -4 -85 -42 -86 -67 0 -19 34 -34 54 -24 15 8 24 5
48 -21 33 -35 46 -37 91 -15 52 27 89 65 76 81 -6 7 -19 13 -29 13 -9 0 -25 9
-35 20 -18 20 -33 22 -119 13z"/>
<path d="M2322 1388 c-6 -6 -12 -21 -12 -32 0 -12 -14 -41 -30 -65 -33 -49
-37 -68 -16 -96 12 -17 18 -18 67 -7 30 6 75 10 101 9 39 -2 50 2 72 26 29 31
24 50 -16 63 -19 6 -18 8 13 40 27 28 31 38 23 52 -9 14 -29 18 -100 20 -61 2
-93 -1 -102 -10z"/>
<path d="M2874 1176 c-8 -21 67 -88 83 -74 21 17 15 34 -21 62 -39 29 -54 32
-62 12z"/>
<path d="M3540 1103 c-14 -3 -33 -12 -42 -20 -15 -14 -15 -18 -2 -38 8 -12 12
-30 8 -39 -8 -21 3 -25 126 -37 58 -5 125 -12 150 -15 36 -4 49 -2 62 13 20
23 8 59 -24 73 -13 5 -43 23 -68 39 -40 28 -52 31 -115 30 -38 -1 -81 -4 -95
-6z"/>
<path d="M3211 1037 c-8 -10 -7 -18 2 -30 15 -21 147 -37 147 -19 0 9 -32 33
-50 37 -3 1 -18 7 -33 13 -37 15 -52 15 -66 -1z"/>
<path d="M2386 862 c-3 -3 -6 -16 -6 -29 0 -16 8 -27 28 -34 15 -5 44 -22 64
-36 31 -21 41 -23 53 -13 25 21 18 57 -17 83 -31 23 -110 42 -122 29z"/>
</g>
</svg>
